<?xml version="1.0" standalone="no"?>
<!DOCTYPE svg PUBLIC "-//W3C//DTD SVG 20010904//EN"
 "http://www.w3.org/TR/2001/REC-SVG-20010904/DTD/svg10.dtd">
<svg version="1.0" xmlns="http://www.w3.org/2000/svg"
 width="495.000000pt" height="444.000000pt" viewBox="0 0 495.000000 444.000000"
 preserveAspectRatio="xMidYMid meet">

<g transform="translate(0.000000,444.000000) scale(0.100000,-0.100000)"
fill="#000000" stroke="none">
<path d="M2015 3974 c-308 -94 -559 -175 -558 -178 1 -4 3 -12 5 -18 3 -8 190
44 562 155 307 91 561 169 564 171 3 3 1 14 -4 24 -8 17 -51 5 -569 -154z"/>
<path d="M1043 3642 c-100 -36 -171 -101 -216 -199 -33 -73 -31 -198 5 -275
34 -73 103 -142 176 -176 48 -23 71 -27 142 -27 104 0 174 29 245 100 71 71
100 141 100 245 0 71 -4 94 -27 142 -75 160 -267 246 -425 190z m192 -423 c54
-15 95 -46 95 -71 0 -21 0 -21 -127 -2 -49 7 -102 -8 -142 -42 -69 -58 -109
-16 -50 51 55 62 141 87 224 64z"/>
<path d="M1620 3403 c0 -17 6 -23 23 -23 12 0 256 -11 542 -25 657 -31 597
-31 593 3 l-3 27 -465 17 c-256 9 -516 18 -577 20 -113 4 -113 4 -113 -19z"/>
<path d="M801 3056 c-32 -34 -38 -101 -13 -141 13 -21 182 -132 570 -373 303
-189 556 -350 563 -358 25 -31 71 -46 118 -41 39 4 52 12 84 49 87 100 97 176
32 236 -38 35 -82 42 -139 21 -30 -11 -43 -4 -340 182 -170 106 -304 195 -299
196 6 2 79 -39 162 -91 l151 -95 0 60 c0 33 3 59 8 57 4 -2 162 -82 352 -178
190 -96 359 -179 376 -184 45 -13 74 -2 138 50 69 57 126 145 126 194 0 76
-72 138 -145 124 -35 -6 -73 -35 -93 -70 -11 -18 -34 -8 -386 171 l-375 190
-127 3 c-122 4 -127 3 -153 -21 -72 -66 -172 -107 -261 -107 -94 0 -213 53
-279 124 -30 32 -41 32 -70 2z"/>
<path d="M900 1589 l0 -1213 21 -44 c32 -64 86 -97 164 -97 78 0 132 33 164
97 21 44 21 50 21 836 l0 792 45 0 45 0 0 -792 c0 -786 0 -792 21 -836 32 -64
86 -97 164 -97 78 0 132 33 164 97 21 44 21 47 21 991 l0 948 -117 76 c-410
266 -689 446 -700 450 -11 4 -13 -233 -13 -1208z"/>
<path d="M2407 2324 c-15 -16 -4 -43 79 -191 64 -113 92 -153 106 -153 10 0
21 7 24 15 7 18 -168 329 -188 333 -7 1 -17 0 -21 -4z"/>
<path d="M2785 2077 c-11 -8 -36 -17 -55 -21 -42 -8 -80 -42 -80 -72 0 -16 -8
-24 -27 -29 -38 -9 -73 -44 -73 -72 l0 -23 265 0 c289 0 292 1 239 54 -15 14
-31 26 -35 26 -5 0 -9 7 -9 16 0 10 21 -5 58 -40 l57 -56 113 0 c113 0 113 0
106 23 -3 12 -13 30 -22 40 -9 10 -23 39 -31 65 -13 37 -22 49 -46 56 -16 4
-42 15 -57 22 -35 18 -68 18 -96 -2 -18 -13 -29 -14 -54 -5 -24 9 -37 8 -61
-4 -42 -21 -65 -19 -99 10 -33 28 -64 32 -93 12z"/>
<path d="M2510 1804 c0 -45 25 -127 55 -183 42 -77 110 -139 195 -180 71 -34
81 -36 176 -36 96 0 103 2 177 38 131 65 214 172 240 308 6 32 9 61 6 63 -2 2
-194 7 -426 11 l-423 7 0 -28z"/>
<path d="M2030 1260 l0 -70 60 0 60 0 0 -105 0 -105 800 0 800 0 0 105 0 105
60 0 60 0 0 70 0 70 -920 0 -920 0 0 -70z"/>
<path d="M2270 575 l0 -325 95 0 95 0 0 325 0 325 -95 0 -95 0 0 -325z"/>
<path d="M3420 575 l0 -325 100 0 100 0 0 325 0 325 -100 0 -100 0 0 -325z"/>
</g>
</svg>
