<?xml version="1.0" standalone="no"?>
<!DOCTYPE svg PUBLIC "-//W3C//DTD SVG 20010904//EN"
 "http://www.w3.org/TR/2001/REC-SVG-20010904/DTD/svg10.dtd">
<svg version="1.0" xmlns="http://www.w3.org/2000/svg"
 width="322.000000pt" height="409.000000pt" viewBox="0 0 322.000000 409.000000"
 preserveAspectRatio="xMidYMid meet">

<g transform="translate(0.000000,409.000000) scale(0.100000,-0.100000)"
fill="#000000" stroke="none">
<path d="M1384 3995 c-25 -25 -84 -139 -84 -163 0 -30 156 82 182 131 9 17 7
24 -12 39 -30 25 -56 23 -86 -7z"/>
<path d="M1695 3801 c-27 -10 -75 -33 -105 -52 l-55 -34 30 -6 c17 -4 76 -7
133 -8 126 -1 166 15 155 60 -8 28 -51 59 -82 59 -14 -1 -48 -9 -76 -19z"/>
<path d="M983 3652 c-100 -36 -171 -101 -216 -199 -33 -73 -31 -198 5 -275 35
-75 102 -141 183 -179 60 -29 72 -31 143 -27 139 8 253 84 310 206 23 48 27
71 27 142 0 71 -4 94 -27 142 -75 160 -267 246 -425 190z m-9 -426 c38 -42
120 -71 174 -62 20 3 51 8 67 11 70 13 70 -46 0 -79 -107 -51 -279 8 -321 111
-20 46 -18 53 17 53 23 0 40 -9 63 -34z"/>
<path d="M1626 3481 c-12 -19 148 -111 193 -111 24 0 32 5 37 25 9 36 -18 72
-63 84 -46 13 -160 14 -167 2z"/>
<path d="M539 2986 c-72 -28 -118 -56 -164 -103 -83 -83 -135 -229 -120 -338
11 -83 87 -206 175 -281 88 -76 265 -165 412 -208 62 -18 82 -13 172 41 54 32
58 40 45 86 -14 50 -34 63 -170 110 -189 65 -317 144 -352 220 -12 25 -15 50
-10 105 7 87 23 95 23 12 0 -77 16 -115 69 -163 53 -47 198 -119 311 -154 109
-33 128 -46 155 -107 l22 -49 41 51 c57 73 84 149 84 242 0 41 -5 95 -12 120
-23 91 -23 90 -7 90 10 0 21 -19 31 -54 72 -246 -25 -445 -276 -571 -51 -25
-96 -54 -100 -63 -12 -31 -8 -94 8 -122 35 -59 121 -78 179 -40 17 11 62 40
100 64 146 92 243 196 306 331 105 225 89 470 -46 675 -44 66 -95 122 -95 103
0 -5 -13 -8 -29 -5 -16 2 -55 -6 -88 -19 -73 -28 -178 -30 -243 -4 -87 34
-360 54 -421 31z"/>
<path d="M2815 2279 c-66 -49 -130 -99 -142 -109 -13 -11 -23 -17 -23 -15 0 3
-27 -12 -60 -35 l-59 -40 -33 20 c-40 24 -60 25 -101 3 -20 -11 -64 -20 -117
-23 l-85 -5 -18 -37 c-16 -33 -23 -38 -54 -38 l-36 0 6 -45 c14 -100 81 -193
176 -244 59 -31 61 -34 61 -72 l0 -39 145 0 145 0 0 48 c0 46 1 48 46 71 78
42 146 138 160 227 5 36 4 42 -15 47 -11 3 -24 13 -27 24 -13 36 -57 73 -87
73 -24 0 -28 4 -25 23 2 15 47 55 143 128 129 98 151 119 128 126 -4 1 -62
-38 -128 -88z m-191 -186 c-10 -7 -27 -13 -38 -13 -17 0 -14 5 14 24 36 24 59
14 24 -11z m-132 -24 c32 -16 51 -20 92 -15 102 12 129 8 154 -19 12 -15 22
-31 22 -37 0 -7 -83 -8 -277 -3 -153 4 -280 9 -281 10 -2 2 -1 13 3 24 6 19
14 21 83 21 56 1 86 6 112 20 44 24 43 24 92 -1z"/>
<path d="M547 2033 c-4 -54 -7 -485 -7 -958 0 -815 1 -862 19 -900 45 -98 159
-142 249 -96 45 23 87 66 101 104 8 19 11 267 11 758 l0 729 45 0 45 0 0 -727
c0 -686 1 -730 19 -768 45 -98 159 -142 249 -96 45 23 87 66 101 104 8 19 11
308 11 897 l0 869 -126 -60 c-69 -32 -131 -59 -136 -59 -6 0 -25 -13 -44 -30
-66 -58 -160 -48 -217 22 -37 46 -47 112 -23 159 9 18 15 33 14 34 -2 1 -39
14 -83 29 -44 16 -109 41 -144 57 -35 16 -67 29 -71 29 -4 0 -10 -44 -13 -97z"/>
<path d="M1680 815 l0 -755 745 0 745 0 0 755 0 755 -745 0 -745 0 0 -755z"/>
</g>
</svg>
