<?xml version="1.0" standalone="no"?>
<!DOCTYPE svg PUBLIC "-//W3C//DTD SVG 20010904//EN"
 "http://www.w3.org/TR/2001/REC-SVG-20010904/DTD/svg10.dtd">
<svg version="1.0" xmlns="http://www.w3.org/2000/svg"
 width="185.000000pt" height="125.000000pt" viewBox="0 0 185.000000 125.000000"
 preserveAspectRatio="xMidYMid meet">

<g transform="translate(0.000000,125.000000) scale(0.100000,-0.100000)"
fill="#000000" stroke="none">
<path d="M742 1137 c-27 -29 -29 -86 -4 -116 9 -11 31 -24 49 -27 27 -5 37 -1
63 24 38 39 40 83 5 117 -32 33 -83 34 -113 2z"/>
<path d="M264 1140 c-30 -12 -54 -49 -54 -83 0 -40 49 -87 90 -87 42 0 90 47
90 89 0 59 -71 105 -126 81z"/>
<path d="M683 941 c-17 -11 -34 -28 -37 -38 -87 -286 -93 -333 -45 -333 24 0
29 12 69 153 18 64 37 117 41 117 12 0 15 11 -46 -205 -30 -107 -55 -199 -55
-205 0 -5 23 -10 50 -10 l50 0 0 -168 c0 -117 4 -172 12 -180 16 -16 57 -15
63 0 2 7 6 87 7 177 2 119 6 165 15 168 10 4 13 -37 15 -168 3 -151 5 -173 20
-183 13 -8 23 -8 35 0 16 10 19 33 23 180 l5 169 48 3 c29 2 47 8 47 16 0 7
-24 99 -54 204 -29 106 -49 195 -45 198 8 4 25 -48 65 -193 19 -68 43 -88 72
-60 17 17 12 38 -49 239 -40 130 -50 138 -178 138 -77 0 -102 -4 -128 -19z"/>
<path d="M155 936 c-60 -26 -66 -47 -63 -239 l3 -172 24 -3 c43 -6 51 19 51
161 0 83 4 126 10 122 6 -4 10 -136 10 -364 0 -264 3 -360 12 -369 18 -18 53
-15 71 6 15 16 17 47 17 225 0 131 4 207 10 207 6 0 10 -74 10 -203 0 -220 6
-247 55 -247 53 0 55 14 55 392 0 219 4 348 10 348 5 0 11 -57 12 -137 l3
-138 27 -3 c44 -5 50 21 46 192 -3 171 -12 196 -73 222 -45 19 -248 19 -290 0z"/>
<path d="M1226 889 c-32 -25 -35 -70 -6 -99 41 -41 110 -13 110 43 0 38 -7 50
-37 66 -30 15 -36 14 -67 -10z"/>
<path d="M1592 784 c-47 -33 -13 -114 43 -100 50 13 53 80 5 106 -24 13 -21
13 -48 -6z"/>
<path d="M1129 720 l-30 -29 3 -133 3 -133 25 0 c25 0 25 0 28 108 1 60 7 107
12 107 6 0 10 -106 10 -278 0 -277 3 -302 35 -302 36 1 40 17 45 192 l6 173 2
-167 c2 -136 5 -169 18 -182 22 -23 41 -20 60 10 15 23 16 51 10 284 -4 167
-3 261 3 265 7 3 11 -34 13 -102 3 -108 3 -108 28 -108 l25 0 3 133 3 133 -30
29 c-29 29 -31 30 -136 30 -105 0 -107 -1 -136 -30z"/>
<path d="M1542 643 c-24 -21 -83 -214 -72 -234 17 -26 40 2 60 73 28 97 30
102 35 96 3 -2 -13 -66 -34 -141 l-38 -137 33 0 34 0 0 -107 c0 -115 6 -137
36 -131 17 3 20 16 24 123 l6 120 2 -110 c2 -118 9 -139 38 -133 17 3 19 15
22 121 l3 117 35 0 c27 0 35 4 31 14 -16 41 -68 249 -65 258 3 7 15 -28 28
-76 23 -85 40 -110 62 -88 13 13 -38 194 -64 228 -17 21 -27 24 -88 24 -50 0
-73 -5 -88 -17z"/>
</g>
</svg>
