<?xml version="1.0" standalone="no"?>
<!DOCTYPE svg PUBLIC "-//W3C//DTD SVG 20010904//EN"
 "http://www.w3.org/TR/2001/REC-SVG-20010904/DTD/svg10.dtd">
<svg version="1.0" xmlns="http://www.w3.org/2000/svg"
 width="205.000000pt" height="107.000000pt" viewBox="0 0 205.000000 107.000000"
 preserveAspectRatio="xMidYMid meet">

<g transform="translate(0.000000,107.000000) scale(0.100000,-0.100000)"
fill="#000000" stroke="none">
<path d="M290 840 l0 -80 -90 0 -90 0 0 -39 c0 -47 8 -51 106 -51 l74 0 0
-205 0 -205 45 0 45 0 0 205 0 205 90 0 90 0 0 45 0 45 -74 0 c-107 0 -106 -1
-106 86 l0 74 -45 0 -45 0 0 -80z"/>
<path d="M1553 818 l-49 -83 -106 -5 -107 -5 49 -80 c27 -44 50 -86 50 -94 0
-8 -21 -50 -46 -93 -25 -44 -43 -83 -39 -86 4 -4 50 -9 103 -12 l97 -5 50 -82
c27 -46 52 -83 55 -83 3 0 26 38 51 83 l46 82 107 3 c58 1 106 5 106 9 0 3
-23 45 -50 94 l-51 87 44 74 c69 117 72 108 -47 108 l-104 0 -47 85 c-27 47
-52 85 -56 85 -4 0 -30 -37 -56 -82z m76 -42 c12 -18 21 -36 21 -40 0 -3 -21
-6 -46 -6 l-45 0 22 40 c13 22 24 40 25 40 1 0 12 -15 23 -34z m-179 -136
c-11 -22 -22 -40 -24 -40 -4 0 -46 69 -46 76 0 2 20 4 45 4 l45 0 -20 -40z
m267 -12 c48 -80 48 -80 6 -152 l-38 -66 -76 0 -77 0 -40 68 -40 67 36 67 37
68 80 0 81 0 31 -52z m101 15 c-12 -21 -23 -40 -24 -42 -4 -4 -44 61 -44 72 0
4 20 7 45 7 l44 0 -21 -37z m-348 -227 c0 -4 -20 -6 -45 -6 -25 0 -45 3 -45 8
0 4 9 22 21 41 l20 34 25 -36 c13 -20 24 -38 24 -41z m349 34 l22 -40 -50 0
-49 0 21 40 c12 22 25 40 28 40 3 0 15 -18 28 -40z m-186 -125 c-9 -19 -20
-35 -24 -35 -4 0 -16 16 -28 35 l-20 35 44 0 45 0 -17 -35z"/>
<path d="M975 827 c145 -106 190 -227 131 -352 -80 -173 -325 -197 -447 -43
-44 56 -51 42 -15 -30 28 -56 99 -124 153 -148 62 -28 176 -24 243 7 191 90
248 329 114 478 -46 51 -107 87 -172 102 l-37 8 30 -22z"/>
<path d="M842 715 c-22 -27 -25 -28 -62 -18 -43 11 -48 7 -25 -23 20 -26 19
-41 -6 -76 l-22 -30 41 7 c37 6 42 4 63 -24 25 -34 39 -27 39 20 0 21 8 29 38
41 l37 15 -37 18 c-33 16 -37 23 -40 59 l-3 41 -23 -30z"/>
</g>
</svg>
